<?xml version="1.0" encoding="UTF-8"?>
<svg version="1.1" xmlns="http://www.w3.org/2000/svg" width="512" height="512">
<path d="M0 0 C1.16985012 -0.00644889 2.33970025 -0.01289778 3.54500037 -0.0195421 C4.82096098 -0.01644489 6.09692158 -0.01334769 7.41154766 -0.01015663 C8.78799761 -0.01389479 10.16444544 -0.01849698 11.54088992 -0.02388728 C15.31810837 -0.03611219 19.09523821 -0.03585742 22.87247193 -0.03349853 C26.94825518 -0.03309023 31.02401006 -0.0441307 35.09978008 -0.05361366 C43.08303258 -0.07022175 51.06625554 -0.07572312 59.04952387 -0.07683842 C65.53910622 -0.07778897 72.02867883 -0.08189959 78.51825809 -0.08823967 C96.91995767 -0.10585141 115.32163392 -0.11507862 133.72334198 -0.11357872 C134.71524157 -0.11349881 135.70714116 -0.1134189 136.72909832 -0.11333656 C137.72220985 -0.1132548 138.71532138 -0.11317304 139.7385272 -0.1130888 C155.83375675 -0.11227588 171.92889273 -0.13141534 188.02409521 -0.1596133 C204.55302668 -0.18834249 221.08191251 -0.20215358 237.61086959 -0.20042574 C246.88963122 -0.19976186 256.16829474 -0.2052533 265.44703388 -0.22678185 C273.34704218 -0.24499408 281.2469079 -0.24934062 289.14692811 -0.235763 C293.17643983 -0.2292336 297.205678 -0.22911496 301.23516369 -0.2464695 C304.92715634 -0.26220675 308.61865872 -0.25933037 312.31063946 -0.24190123 C314.27213147 -0.23738399 316.23363873 -0.25248356 318.19507152 -0.26838052 C328.534231 -0.18763202 335.69711999 2.26461444 343.28158855 9.33539391 C349.80377235 16.34175728 352.31842201 23.92178495 352.32512665 33.49493504 C352.32833313 34.1923584 352.3315396 34.88978176 352.33484325 35.60833916 C352.34312613 37.9387627 352.33722508 40.26892808 352.33134747 42.5993557 C352.33436891 44.28959138 352.33825835 45.9798257 352.34294003 47.67005759 C352.3532292 52.30978696 352.35103589 56.94943914 352.34675944 61.58917487 C352.34429399 66.59463691 352.35330397 71.60008028 352.36079693 76.60553551 C352.37354957 86.40844617 352.37533703 96.21132946 352.37299667 106.01424702 C352.3712145 113.97886656 352.37296097 121.94347777 352.37722111 129.90809631 C352.3778163 131.04111574 352.37841149 132.17413517 352.37902471 133.34148851 C352.38023644 135.64306785 352.38145057 137.94464719 352.38266709 140.24622653 C352.39354416 161.83103782 352.39137895 183.4158335 352.38528224 205.00064567 C352.38010917 224.76245616 352.39137853 244.52421741 352.41038046 264.28601816 C352.42973322 284.56772632 352.43801961 304.84941115 352.43425721 325.13112861 C352.43234175 336.52182658 352.4348665 347.91248261 352.44897175 359.30317307 C352.46085367 368.99657114 352.46232617 378.68990143 352.45018158 388.38330039 C352.44427129 393.33161477 352.44325264 398.27980497 352.45518398 403.22811127 C352.46596952 407.75363887 352.46302763 412.2789375 352.4489223 416.80445407 C352.44625509 418.44562398 352.4487047 420.08681143 352.45665816 421.72796424 C352.46668916 423.95129853 352.45840771 426.17382518 352.44538116 428.3971262 C352.44543618 429.63425773 352.4454912 430.87138926 352.44554788 432.14600962 C352.03469263 435.55568698 351.59694897 436.95031889 349.07065105 439.25726891 C347.42065105 439.58726891 345.77065105 439.91726891 344.07065105 440.25726891 C344.07065105 445.86726891 344.07065105 451.47726891 344.07065105 457.25726891 C345.72065105 457.58726891 347.37065105 457.91726891 349.07065105 458.25726891 C351.25907094 460.38284616 351.98417748 461.72593975 352.47470379 464.73993492 C352.50697658 467.76744307 352.52837242 470.79207961 352.50815105 473.81976891 C352.52813152 474.85424156 352.54811199 475.88871422 352.56869793 476.95453453 C352.5622449 487.2600207 350.16897421 495.99021399 342.93002605 503.53851891 C336.68647562 509.30986804 330.87718546 512.50232135 322.14130211 512.51453781 C320.97145199 512.5209867 319.80160186 512.5274356 318.59630173 512.53407991 C317.32034113 512.53098271 316.04438053 512.5278855 314.72975445 512.52469444 C313.3533045 512.5284326 311.97685666 512.53303479 310.60041219 512.53842509 C306.82319374 512.55065001 303.0460639 512.55039523 299.26883018 512.54803634 C295.19304693 512.54762804 291.11729204 512.55866851 287.04152203 512.56815147 C279.05826953 512.58475956 271.07504657 512.59026093 263.09177824 512.59137623 C256.60219589 512.59232678 250.11262328 512.5964374 243.62304401 512.60277748 C225.22134444 512.62038922 206.81966819 512.62961643 188.41796013 512.62811653 C187.42606054 512.62803662 186.43416094 512.62795671 185.41220379 512.62787437 C184.41909226 512.62779261 183.42598073 512.62771085 182.40277491 512.62762661 C166.30754535 512.62681369 150.21240938 512.64595315 134.11720689 512.67415111 C117.58827542 512.70288031 101.05938959 512.71669139 84.53043252 512.71496356 C75.25167089 512.71429968 65.97300736 512.71979111 56.69426823 512.74131966 C48.79425993 512.7595319 40.89439421 512.76387843 32.994374 512.75030081 C28.96486228 512.74377141 24.9356241 512.74365277 20.90613842 512.76100731 C17.21414577 512.77674456 13.52264339 512.77386818 9.83066265 512.75643905 C7.86917064 512.7519218 5.90766338 512.76702138 3.94623059 512.78291833 C-6.39292889 512.70216983 -13.55581788 510.24992337 -21.14028645 503.17914391 C-27.57817523 496.26333325 -30.17540267 488.73313814 -30.18661785 479.27227402 C-30.19012393 478.60216423 -30.19363 477.93205445 -30.19724232 477.2416383 C-30.2065201 475.00411931 -30.20164252 472.76686267 -30.19677448 470.52933311 C-30.20051254 468.9058065 -30.20511468 467.28228168 -30.21050513 465.65875971 C-30.22273063 461.20338903 -30.22247521 456.74809346 -30.22011638 452.29270983 C-30.21970812 447.48559126 -30.23074799 442.67849674 -30.24023151 437.87138939 C-30.25683824 428.45717217 -30.26234085 419.04298 -30.26345627 409.62874936 C-30.26440656 401.97925999 -30.26851591 394.32977888 -30.27485752 386.68029213 C-30.29246629 364.99932463 -30.30169655 343.31837693 -30.30019657 321.63740222 C-30.30011666 320.4687844 -30.30003675 319.30016658 -30.29995441 318.09613609 C-30.29987265 316.92609455 -30.29979089 315.75605301 -30.29970665 314.55055566 C-30.29889307 295.57185605 -30.31804993 276.59323566 -30.34623115 257.61455898 C-30.37492983 238.13402379 -30.38877322 218.65352729 -30.3870436 199.17297041 C-30.38637882 188.23326624 -30.3919098 177.2936452 -30.4133997 166.35396004 C-30.43157148 157.04375489 -30.4359916 147.73367062 -30.42238085 138.42345546 C-30.41583191 133.67142746 -30.41580332 128.91963162 -30.43308735 124.16762543 C-30.44873758 119.82024006 -30.44603755 115.47327251 -30.42851909 111.12589784 C-30.42543142 109.55065659 -30.42914754 107.97538477 -30.44023924 106.40017955 C-30.45429424 104.26313673 -30.44382869 102.12757301 -30.42712688 99.99058151 C-30.42756162 98.8024339 -30.42799636 97.6142863 -30.42844427 96.39013422 C-29.82118419 92.57830921 -28.73234383 90.88376238 -25.92934895 88.25726891 C-24.60934895 88.25726891 -23.28934895 88.25726891 -21.92934895 88.25726891 C-21.92934895 82.97726891 -21.92934895 77.69726891 -21.92934895 72.25726891 C-23.57934895 71.92726891 -25.22934895 71.59726891 -26.92934895 71.25726891 C-29.02873864 69.49146199 -29.80407037 68.10563762 -30.20544147 65.38760948 C-30.3451633 63.01427116 -30.37123494 60.66206832 -30.3629427 58.28461266 C-30.36818455 57.40632301 -30.3734264 56.52803337 -30.3788271 55.62312889 C-30.38524667 53.76298642 -30.38391111 51.90280335 -30.37539387 50.0426693 C-30.36695068 47.22867647 -30.39553602 44.41676089 -30.42739582 41.60297203 C-30.47742224 29.09010487 -29.88353123 18.45949317 -20.78872395 8.97601891 C-14.54517351 3.20466977 -8.73588335 0.01221647 0 0 Z " fill="#FED63F" transform="translate(94.92934894561768,-0.25726890563964844)"/>
<path d="M0 0 C2.58585205 -0.16236745 5.16151954 -0.28095486 7.75 -0.375 C8.84441406 -0.45041016 8.84441406 -0.45041016 9.9609375 -0.52734375 C12.109375 -0.5859375 12.109375 -0.5859375 16 0 C18.453125 2.9609375 18.453125 2.9609375 20 6 C24.97214463 10.97214463 33.97709878 7.64885494 41 8 C41 82.91 41 157.82 41 235 C-54.7 235 -150.4 235 -249 235 C-249 160.09 -249 85.18 -249 8 C-231.50484375 7.93941406 -214.0096875 7.87882812 -195.984375 7.81640625 C-184.92838305 7.77593129 -173.87239294 7.73520854 -162.81640625 7.69335938 C-157.01057971 7.67139279 -151.20475294 7.64948774 -145.39892578 7.62768555 C-144.30739647 7.62358277 -144.30739647 7.62358277 -143.19381607 7.6193971 C-131.43918517 7.57530421 -119.6845447 7.53468655 -107.92989704 7.49534739 C-95.87037071 7.45491073 -83.81086217 7.41075134 -71.75136209 7.36312145 C-64.97609073 7.33646921 -58.2008221 7.3115497 -51.42552948 7.29092598 C-45.05299203 7.27135977 -38.68048859 7.24721595 -32.30798149 7.21950912 C-29.9650096 7.21013862 -27.62203025 7.20246334 -25.27904701 7.19658089 C-22.08807314 7.18831976 -18.89718179 7.17404291 -15.70623779 7.15821838 C-14.30546419 7.15675122 -14.30546419 7.15675122 -12.87639213 7.15525442 C-12.02196281 7.14977998 -11.16753349 7.14430554 -10.28721237 7.1386652 C-9.18222621 7.13467814 -9.18222621 7.13467814 -8.0549171 7.13061053 C-5.867581 6.99158345 -4.05568445 6.77533826 -2 6 C-0.6954344 3.00384054 -0.6954344 3.00384054 0 0 Z " fill="#E0F4FD" transform="translate(360,37)"/>
<path d="M0 0 C3.6777187 0.70973519 5.24932034 1.46588854 7.53373706 4.42431259 C9.99975062 9.84932416 9.2287023 16.38771045 9.17481995 22.25048828 C9.17826725 23.86831818 9.18392002 25.48614463 9.19158787 27.10396004 C9.20634042 31.54844313 9.19002568 35.99235482 9.16873491 40.43679142 C9.15125397 45.23031751 9.1626685 50.02378286 9.17074585 54.81732178 C9.18095444 63.12337421 9.1733412 71.42925643 9.15408516 79.73529053 C9.12660459 91.75095605 9.13042435 103.76645664 9.14267098 115.78214002 C9.16206923 135.28511582 9.16211943 154.78803731 9.1472168 174.29101562 C9.14633066 175.45836974 9.14544453 176.62572386 9.14453154 177.82845235 C9.14089744 182.55858679 9.13718005 187.28872115 9.13336498 192.01885545 C9.1229017 205.04056401 9.11465697 218.06227325 9.1081543 231.08398438 C9.10756606 232.24991788 9.10697783 233.41585139 9.10637177 234.61711621 C9.09709737 254.04678109 9.10355783 273.47641348 9.12046474 292.90607262 C9.13006413 304.893958 9.12487124 316.88166917 9.10069703 328.86953497 C9.08496665 337.08042119 9.08310729 345.29123306 9.09223027 353.50212908 C9.09696594 358.24212832 9.09499863 362.98188817 9.07559395 367.72185516 C9.05792779 372.05945387 9.05854077 376.39664833 9.07377302 380.73425269 C9.07600095 382.30483492 9.07141968 383.87544435 9.05940635 385.44598222 C9.04404647 387.57913928 9.05328786 389.71083849 9.06865788 391.84396362 C9.06746639 393.02923582 9.06627491 394.21450802 9.06504732 395.43569756 C9.83263764 400.45336494 12.38348497 403.52284243 15.92822266 407.02441406 C21.67272774 409.6531638 27.48504459 409.29301781 33.7109375 409.296875 C35.09243701 409.31186909 36.47391867 409.32859883 37.8553772 409.34698486 C41.47537087 409.39053375 45.09512279 409.41062935 48.71533203 409.42572021 C52.41583477 409.4453367 56.11607814 409.4873014 59.81640625 409.52734375 C67.06503422 409.60251047 74.31355287 409.6528833 81.5625 409.6875 C81.54944824 409.08566895 81.53639648 408.48383789 81.52294922 407.86376953 C81.51279785 407.06567871 81.50264648 406.26758789 81.4921875 405.4453125 C81.47913574 404.65785645 81.46608398 403.87040039 81.45263672 403.05908203 C81.74155073 396.82239154 84.60336002 391.83024855 88.74609375 387.29296875 C94.70516939 382.0259148 101.12627423 379.57282092 108.99266052 379.52687073 C109.64829249 379.52178291 110.30392446 379.51669509 110.97942406 379.51145309 C113.1808607 379.49573195 115.3822645 379.48720427 117.58374023 379.47875977 C119.16075346 379.46922061 120.73776459 379.45932942 122.31477356 379.44911194 C127.50018835 379.41771957 132.68561917 379.39745226 137.87109375 379.37890625 C138.75424924 379.37560893 139.63740473 379.37231161 140.54732251 379.36891437 C148.88276012 379.33812158 157.2182014 379.31142282 165.55367947 379.29449558 C176.20021296 379.27261972 186.84624015 379.23072024 197.49257129 379.16105801 C204.985748 379.11370241 212.47878873 379.08954625 219.97211033 379.0822987 C224.44288346 379.07735785 228.91308608 379.06242847 233.3836956 379.0225544 C237.59706785 378.98547196 241.80954893 378.97734825 246.02305412 378.99056053 C247.56126993 378.99050693 249.09952739 378.98035354 250.63759232 378.9588089 C261.24373595 378.81830564 270.32800202 380.22314134 278.5866766 387.46163273 C283.46977768 392.54326686 285.74888999 398.44197076 285.6328125 405.4453125 C285.62266113 406.24340332 285.61250977 407.04149414 285.60205078 407.86376953 C285.58899902 408.46560059 285.57594727 409.06743164 285.5625 409.6875 C293.41252121 409.62617253 301.26221412 409.5489832 309.11186409 409.45178509 C312.75717057 409.40714043 316.40236681 409.36787175 320.04785156 409.34106445 C323.56884237 409.31497189 327.08940763 409.27452858 330.61013412 409.22431374 C332.60076001 409.19961642 334.59155075 409.18961553 336.58230591 409.17985535 C338.41352493 409.15016411 338.41352493 409.15016411 340.28173828 409.11987305 C341.88724045 409.10321846 341.88724045 409.10321846 343.525177 409.08622742 C348.37461849 408.44961245 351.61234876 406.7403703 354.875 403.125 C357.29082685 399.63547233 357.68091735 397.87504261 357.703125 393.671875 C357.72246094 392.66769531 357.74179687 391.66351563 357.76171875 390.62890625 C357.79532129 388.51711574 357.81378258 386.40502496 357.81640625 384.29296875 C358.02619258 375.64756382 358.02619258 375.64756382 360.88671875 371.99609375 C363.5625 369.6875 363.5625 369.6875 367.125 369 C370.5625 369.6875 370.5625 369.6875 372.74609375 371.50390625 C375.50135553 376.33302099 375.14274894 380.8488846 375.0625 386.3125 C375.07796875 387.34246094 375.0934375 388.37242187 375.109375 389.43359375 C375.05771589 399.70084199 372.63148981 408.45103199 365.421875 415.96875 C359.17832457 421.74009914 353.3690344 424.93255244 344.63315105 424.94476891 C343.46330093 424.9512178 342.29345081 424.95766669 341.08815068 424.964311 C339.81219008 424.9612138 338.53622947 424.9581166 337.22160339 424.95492554 C335.84515344 424.9586637 334.46870561 424.96326588 333.09226114 424.96865618 C329.31504269 424.9808811 325.53791284 424.98062632 321.76067913 424.97826743 C317.68489588 424.97785914 313.60914099 424.9888996 309.53337097 424.99838257 C301.55011847 425.01499065 293.56689551 425.02049202 285.58362719 425.02160732 C279.09404484 425.02255787 272.60447223 425.0266685 266.11489296 425.03300858 C247.71319339 425.05062031 229.31151714 425.05984753 210.90980908 425.05834763 C209.91790948 425.05826772 208.92600989 425.0581878 207.90405273 425.05810547 C206.9109412 425.05802371 205.91782967 425.05794195 204.89462385 425.05785771 C188.7993943 425.05704478 172.70425832 425.07618424 156.60905584 425.1043822 C140.08012437 425.1331114 123.55123854 425.14692248 107.02228147 425.14519465 C97.74351984 425.14453077 88.46485631 425.15002221 79.18611717 425.17155075 C71.28610887 425.18976299 63.38624315 425.19410953 55.48622295 425.1805319 C51.45671123 425.1740025 47.42747305 425.17388387 43.39798737 425.1912384 C39.70599471 425.20697566 36.01449233 425.20409927 32.32251159 425.18667014 C30.36101958 425.18215289 28.39951233 425.19725247 26.43807954 425.21314943 C16.09892006 425.13240092 8.93603107 422.68015446 1.3515625 415.609375 C-5.08632628 408.69356434 -7.68355372 401.16336924 -7.69476891 391.70250511 C-7.69827498 391.03239533 -7.70178105 390.36228554 -7.70539337 389.6718694 C-7.71467115 387.43435041 -7.70979357 385.19709377 -7.70492554 382.95956421 C-7.70866359 381.33603759 -7.71326573 379.71251278 -7.71865618 378.08899081 C-7.73088169 373.63362012 -7.73062626 369.17832455 -7.72826743 364.72294092 C-7.72785917 359.91582235 -7.73889905 355.10872784 -7.74838257 350.30162048 C-7.7649893 340.88740326 -7.7704919 331.47321109 -7.77160732 322.05898045 C-7.77255762 314.40949108 -7.77666696 306.76000998 -7.78300858 299.11052322 C-7.80061735 277.42955572 -7.8098476 255.74860802 -7.80834763 234.06763332 C-7.80826772 232.89901549 -7.8081878 231.73039767 -7.80810547 230.52636719 C-7.80802371 229.35632564 -7.80794195 228.1862841 -7.80785771 226.98078676 C-7.80704412 208.00208714 -7.82620099 189.02346676 -7.8543822 170.04479007 C-7.88308089 150.56425488 -7.89692427 131.08375839 -7.89519465 111.60320151 C-7.89452987 100.66349733 -7.90006086 89.7238763 -7.92155075 78.78419113 C-7.93972253 69.47398599 -7.94414266 60.16390171 -7.9305319 50.85368656 C-7.92398297 46.10165855 -7.92395437 41.34986272 -7.9412384 36.59785652 C-7.95688864 32.25047116 -7.9541886 27.90350361 -7.93667014 23.55612893 C-7.93358248 21.98088769 -7.9372986 20.40561587 -7.94839029 18.83041064 C-7.9624453 16.69336782 -7.95197974 14.55780411 -7.93527794 12.42081261 C-7.93571267 11.232665 -7.93614741 10.04451739 -7.93659532 8.82036531 C-7.11636757 3.67172343 -5.13580873 1.02716175 0 0 Z " fill="#030300" transform="translate(72.4375,87.3125)"/>
<path d="M0 0 C0.88828883 -0.00521549 1.77657765 -0.01043099 2.69178432 -0.01580453 C3.66861819 -0.01134309 4.64545205 -0.00688164 5.65188694 -0.002285 C6.68885025 -0.00540498 7.72581356 -0.00852497 8.7942 -0.01173949 C12.28576483 -0.01974767 15.77715722 -0.01338481 19.26872349 -0.00710678 C21.7651082 -0.00981541 24.2614921 -0.01337561 26.75787449 -0.0177269 C32.84488129 -0.02591845 38.93181986 -0.02469371 45.01882403 -0.01890162 C49.96532848 -0.01438922 54.91181909 -0.01377039 59.858325 -0.01594925 C60.91339559 -0.01640895 60.91339559 -0.01640895 61.98978074 -0.01687793 C63.41859122 -0.01751737 64.84740169 -0.0181658 66.27621216 -0.01882312 C79.68277335 -0.02452988 93.08930721 -0.01796332 106.49586392 -0.00722238 C118.00317195 0.0017115 129.51043963 0.0001631 141.01774693 -0.00905991 C154.37400606 -0.01975979 167.73024122 -0.02397847 181.08650404 -0.01783538 C182.51043419 -0.01719827 183.93436434 -0.01656953 185.35829449 -0.01594925 C186.40924878 -0.01548642 186.40924878 -0.01548642 187.48143448 -0.01501425 C192.42237176 -0.01328631 197.36329385 -0.01620456 202.30422878 -0.02090836 C208.95340861 -0.02709911 215.60252389 -0.02269952 222.2517004 -0.01111984 C224.69627092 -0.00846888 227.14084784 -0.00924575 229.58541584 -0.01364517 C232.91421977 -0.01908484 236.24277662 -0.01228551 239.57156467 -0.002285 C241.03346939 -0.00897717 241.03346939 -0.00897717 242.52490753 -0.01580453 C243.4158041 -0.01058903 244.30670068 -0.00537354 245.22459412 0 C245.99304073 0.0003247 246.76148734 0.00064941 247.55322021 0.00098395 C249.99478379 0.28943666 251.59290169 0.95716698 253.67521763 2.25168228 C255.20013761 5.30152224 254.91084311 7.89401918 254.67521763 11.25168228 C253.1325895 13.35526609 251.99413445 14.09222387 249.67521763 15.25168228 C248.3307281 15.34411611 246.98176394 15.37542407 245.63410091 15.37473011 C244.78365369 15.37672116 243.93320647 15.37871221 243.05698812 15.38076359 C242.11731337 15.37785075 241.17763861 15.37493791 240.20948887 15.3719368 C239.2154768 15.37279122 238.22146472 15.37364565 237.19733107 15.37452596 C233.84537815 15.37618142 230.49347458 15.3706583 227.14152622 15.36520767 C224.747173 15.36492579 222.3528197 15.36508356 219.95846653 15.36565018 C214.79268886 15.36587836 209.62692249 15.3630303 204.46114826 15.35741234 C196.99225069 15.34929493 189.52335924 15.34668187 182.05445774 15.34542435 C169.93748102 15.34323421 157.82051101 15.33657515 145.70353794 15.32712173 C133.93107734 15.31794664 122.15861857 15.31087774 110.38615513 15.30661392 C109.65343789 15.30634592 108.92072065 15.30607793 108.16579986 15.30580181 C101.79249338 15.30348905 95.41918685 15.30133621 89.04588032 15.2991991 C61.58898643 15.28978473 34.13211035 15.26986565 6.67521763 15.25168228 C6.67521763 90.16168228 6.67521763 165.07168228 6.67521763 242.25168228 C102.37521763 242.25168228 198.07521763 242.25168228 296.67521763 242.25168228 C296.67521763 167.34168228 296.67521763 92.43168228 296.67521763 15.25168228 C290.07521763 15.25168228 283.47521763 15.25168228 276.67521763 15.25168228 C272.67521763 11.25168228 272.67521763 11.25168228 272.17521763 7.75168228 C272.76419192 3.62886223 273.40415798 2.72432056 276.67521763 0.25168228 C279.81974888 -0.23415756 279.81974888 -0.23415756 283.48771763 -0.20925522 C284.13845249 -0.20833878 284.78918736 -0.20742233 285.45964146 -0.20647812 C286.83137936 -0.20045343 288.2031048 -0.18474097 289.57463169 -0.15993881 C291.66855194 -0.12343393 293.76069984 -0.11891964 295.85490513 -0.11941147 C307.51560569 -0.03358877 307.51560569 -0.03358877 310.67521763 2.25168228 C312.40106776 5.11252008 312.92544368 7.23768398 312.92689991 10.55895615 C312.9321154 11.41788546 312.9373309 12.27681478 312.94270444 13.16177225 C312.938243 14.10067474 312.93378155 15.03957723 312.92918491 16.0069313 C312.93230489 17.00799707 312.93542488 18.00906283 312.9386394 19.04046392 C312.94663508 22.40454922 312.94028958 25.76845492 312.93400669 29.13254166 C312.93671585 31.54040508 312.94027636 33.94826768 312.94462681 36.35612869 C312.95281261 42.2230775 312.95159672 48.08997943 312.94580153 53.95692694 C312.94128688 58.72463185 312.94067128 63.49232241 312.94284916 68.26002884 C312.94315563 68.93829549 312.94346209 69.61656214 312.94377784 70.31538233 C312.94441729 71.69321828 312.94506571 73.07105421 312.94572303 74.44889015 C312.95142769 87.37236354 312.9448663 100.29580858 312.93412229 113.21927732 C312.92518666 124.31098511 312.92673866 135.40265103 312.93595982 146.49435806 C312.94666004 159.37122426 312.95087835 172.2480656 312.94473529 185.12493563 C312.94409818 186.49773566 312.94346944 187.87053569 312.94284916 189.24333572 C312.94254061 189.91879994 312.94223206 190.59426416 312.94191416 191.29019699 C312.94018647 196.05281139 312.9431039 200.81541004 312.94780827 205.578022 C312.95399937 211.98672768 312.94959879 218.3953728 312.93801975 224.80407143 C312.93536908 227.15995209 312.93614516 229.5158394 312.94054508 231.87171745 C312.94598584 235.08004695 312.93918413 238.28812021 312.92918491 241.49643326 C312.93364636 242.43533575 312.9381078 243.37423823 312.94270444 244.34159231 C312.93748894 245.20052163 312.93227345 246.05945094 312.92689991 246.94440842 C312.92657521 247.68497309 312.9262505 248.42553777 312.92591596 249.1885438 C312.62575504 251.6587379 312.05491535 253.17722778 310.67521763 255.25168228 C307.60740379 257.36483093 305.00420188 257.50346134 301.3371973 257.50895119 C300.24836388 257.51540008 299.15953046 257.52184897 298.03770208 257.52849329 C296.24414447 257.52384748 296.24414447 257.52384748 294.41435337 257.51910782 C293.14377315 257.52363893 291.87319293 257.52817004 290.56411028 257.53283846 C287.03495462 257.54508801 283.50589361 257.54480572 279.97672153 257.54244971 C276.17162056 257.54204205 272.36655014 257.55307573 268.56146336 257.56256485 C261.10633684 257.57918558 253.65124194 257.58467484 246.19609845 257.58578961 C240.13834725 257.58673939 234.08060651 257.59084621 228.02285862 257.59719086 C210.85677723 257.61480473 193.69072086 257.62402928 176.52463037 257.62252991 C175.59898725 257.62245 174.67334413 257.62237008 173.71965122 257.62228775 C172.79288128 257.62220599 171.86611133 257.62212423 170.91125745 257.62203999 C155.88273023 257.62122663 140.85430313 257.64037655 125.82580489 257.66856448 C110.40324254 257.69726391 94.98072907 257.71110646 79.55813932 257.70937693 C70.89598615 257.7087121 62.23393798 257.71424521 53.57180882 257.73573303 C46.19861431 257.75390601 38.82557243 257.75832415 31.45236528 257.74471419 C27.68878985 257.73816529 23.92550754 257.73813601 20.16195965 257.75542068 C16.08644305 257.77394614 12.01161085 257.76164762 7.93608189 257.7461586 C6.74037681 257.75644573 5.54467174 257.76673285 4.31273317 257.77733171 C3.22389975 257.76813412 2.13506633 257.75893653 1.01323795 257.74946022 C0.07218094 257.74989496 -0.86887607 257.75032969 -1.83844995 257.7507776 C-5.07408319 257.10127096 -6.25333956 255.76046647 -8.32478237 253.25168228 C-9.4647965 250.97165403 -9.45101027 249.72311757 -9.45341682 247.19050407 C-9.45664127 246.33555686 -9.45986572 245.48060964 -9.46318787 244.59975493 C-9.46163927 243.65502676 -9.46009067 242.71029859 -9.45849514 241.73694229 C-9.4607607 240.73758538 -9.46302625 239.73822846 -9.46536046 238.708588 C-9.47172313 235.33833836 -9.47086965 231.9681287 -9.47004604 228.59787369 C-9.47303613 226.19030581 -9.4764383 223.78273842 -9.48022366 221.37517166 C-9.48816185 215.50127874 -9.49127898 209.62739528 -9.49183603 203.75349809 C-9.49231072 198.98002734 -9.49436306 194.20655991 -9.49753666 189.43309021 C-9.50634638 175.90747302 -9.51095557 162.38186377 -9.51020619 148.85624368 C-9.51016623 148.12661147 -9.51012627 147.39697925 -9.51008511 146.64523697 C-9.51004423 145.91471659 -9.51000334 145.18419622 -9.50996123 144.43153886 C-9.50955473 132.59091141 -9.51912435 120.75031575 -9.53322347 108.90969749 C-9.5475771 96.75971925 -9.55449421 84.60975654 -9.5536297 72.45976961 C-9.55329736 65.63532378 -9.55606034 58.81091128 -9.56680775 51.98647308 C-9.5768483 45.56959265 -9.57658775 39.1527645 -9.56929111 32.7358799 C-9.56824167 30.37677343 -9.57062934 28.01766263 -9.57665157 25.65856361 C-9.58432374 22.44575486 -9.57975841 19.23319268 -9.57202053 16.02038956 C-9.57716409 15.08012283 -9.58230766 14.1398561 -9.58760709 13.17109644 C-9.58300829 12.31093373 -9.57840949 11.45077102 -9.57367134 10.56454277 C-9.57388871 9.82289395 -9.57410608 9.08124513 -9.57433003 8.3171221 C-9.27961549 5.87784796 -8.6353396 4.32658308 -7.32478237 2.25168228 C-4.20658353 0.17288305 -3.53643445 0.00149462 0 0 Z " fill="#060603" transform="translate(104.324782371521,29.74831771850586)"/>
<path d="M0 0 C16.16123082 10.91791015 26.28108562 26.28430567 31 45 C31.26151855 45.92341187 31.26151855 45.92341187 31.52832031 46.86547852 C35.63807238 65.46359566 30.48532346 85.01655106 21 101 C9.56466402 117.92715014 -6.66261189 128.10079234 -26.35888672 132.53051758 C-46.73347913 136.15229066 -65.93753016 131.36872156 -82.92578125 120.05078125 C-98.84735023 107.84341966 -108.48026766 91.65912611 -112 72 C-113.61126387 49.78011566 -109.89971189 30.77131347 -95.14453125 13.3359375 C-84.10236438 1.30822204 -71.77477688 -6.02259899 -56 -10 C-55.38439209 -10.1743457 -54.76878418 -10.34869141 -54.13452148 -10.52832031 C-35.53640434 -14.63807238 -15.98344894 -9.48532346 0 0 Z " fill="#020202" transform="translate(220,316)"/>
<path d="M0 0 C1.16985012 -0.00644889 2.33970025 -0.01289778 3.54500037 -0.0195421 C4.82096098 -0.01644489 6.09692158 -0.01334769 7.41154766 -0.01015663 C8.78799761 -0.01389479 10.16444544 -0.01849698 11.54088992 -0.02388728 C15.31810837 -0.03611219 19.09523821 -0.03585742 22.87247193 -0.03349853 C26.94825518 -0.03309023 31.02401006 -0.0441307 35.09978008 -0.05361366 C43.08303258 -0.07022175 51.06625554 -0.07572312 59.04952387 -0.07683842 C65.53910622 -0.07778897 72.02867883 -0.08189959 78.51825809 -0.08823967 C96.91995767 -0.10585141 115.32163392 -0.11507862 133.72334198 -0.11357872 C134.71524157 -0.11349881 135.70714116 -0.1134189 136.72909832 -0.11333656 C137.72220985 -0.1132548 138.71532138 -0.11317304 139.7385272 -0.1130888 C155.83375675 -0.11227588 171.92889273 -0.13141534 188.02409521 -0.1596133 C204.55302668 -0.18834249 221.08191251 -0.20215358 237.61086959 -0.20042574 C246.88963122 -0.19976186 256.16829474 -0.2052533 265.44703388 -0.22678185 C273.34704218 -0.24499408 281.2469079 -0.24934062 289.14692811 -0.235763 C293.17643983 -0.2292336 297.205678 -0.22911496 301.23516369 -0.2464695 C304.92715634 -0.26220675 308.61865872 -0.25933037 312.31063946 -0.24190123 C314.27213147 -0.23738399 316.23363873 -0.25248356 318.19507152 -0.26838052 C328.534231 -0.18763202 335.69711999 2.26461444 343.28158855 9.33539391 C349.80377235 16.34175728 352.31842201 23.92178495 352.32512665 33.49493504 C352.32833313 34.1923584 352.3315396 34.88978176 352.33484325 35.60833916 C352.34312613 37.9387627 352.33722508 40.26892808 352.33134747 42.5993557 C352.33436891 44.28959138 352.33825835 45.9798257 352.34294003 47.67005759 C352.3532292 52.30978696 352.35103589 56.94943914 352.34675944 61.58917487 C352.34429399 66.59463691 352.35330397 71.60008028 352.36079693 76.60553551 C352.37354957 86.40844617 352.37533703 96.21132946 352.37299667 106.01424702 C352.3712145 113.97886656 352.37296097 121.94347777 352.37722111 129.90809631 C352.3778163 131.04111574 352.37841149 132.17413517 352.37902471 133.34148851 C352.38023644 135.64306785 352.38145057 137.94464719 352.38266709 140.24622653 C352.39354416 161.83103782 352.39137895 183.4158335 352.38528224 205.00064567 C352.38010917 224.76245616 352.39137853 244.52421741 352.41038046 264.28601816 C352.42973322 284.56772632 352.43801961 304.84941115 352.43425721 325.13112861 C352.43234175 336.52182658 352.4348665 347.91248261 352.44897175 359.30317307 C352.46085367 368.99657114 352.46232617 378.68990143 352.45018158 388.38330039 C352.44427129 393.33161477 352.44325264 398.27980497 352.45518398 403.22811127 C352.46596952 407.75363887 352.46302763 412.2789375 352.4489223 416.80445407 C352.44625509 418.44562398 352.4487047 420.08681143 352.45665816 421.72796424 C352.46668916 423.95129853 352.45840771 426.17382518 352.44538116 428.3971262 C352.44543618 429.63425773 352.4454912 430.87138926 352.44554788 432.14600962 C352.04035592 435.50868743 351.43542024 436.87977341 349.07065105 439.25726891 C345.66542728 440.63776503 344.33477715 440.36084777 340.88315105 439.00726891 C338.07065105 437.25726891 338.07065105 437.25726891 336.07065105 434.25726891 C335.8204447 431.27546948 335.8204447 431.27546948 335.82011127 427.53299809 C335.8173136 426.84247767 335.81451592 426.15195725 335.81163347 425.44051197 C335.80463368 423.109461 335.81195276 420.77866979 335.81909466 418.4476223 C335.81695755 416.76638942 335.81393321 415.08515748 335.81009424 413.40392762 C335.80202689 408.7704204 335.80637395 404.13699352 335.81261301 399.50348651 C335.81713409 394.51155153 335.81011326 389.51963219 335.80430889 384.52770042 C335.79566343 375.8729726 335.79387075 367.21826522 335.79625607 358.56353378 C335.79934841 346.04360493 335.78773347 333.52372146 335.77170627 321.00380401 C335.74572436 300.68391811 335.72571586 280.36403217 335.71225262 260.04413414 C335.71144225 258.82723368 335.71063188 257.61033322 335.70979695 256.35655699 C335.69857512 239.08648391 335.69329448 221.81641405 335.69040982 204.54633782 C335.69010384 202.72235149 335.69010384 202.72235149 335.68979168 200.86151695 C335.68959174 199.64700335 335.68939181 198.43248974 335.68918581 197.18117269 C335.68545538 176.94250208 335.66638665 156.70388059 335.63469732 136.46523458 C335.61575888 123.97470704 335.6098359 111.48430532 335.6205145 98.99376736 C335.6268242 90.4366291 335.61881964 81.87958119 335.59946038 73.32246276 C335.58875653 68.38200001 335.58466375 63.44175651 335.59793186 58.50129509 C335.60995161 53.98036844 335.60368143 49.45985355 335.58273987 44.93896285 C335.57842491 43.3016788 335.58090222 41.66436016 335.59078105 40.02710023 C335.60322346 37.80392137 335.59112351 35.58217133 335.57287312 33.35906315 C335.57222101 31.50580922 335.57222101 31.50580922 335.57155573 29.61511582 C334.8497291 24.77630427 332.64914677 21.64443181 329.00815105 18.44476891 C325.50334505 16.296662 322.6256192 16.13030774 318.61138725 16.12304783 C317.47004395 16.11858998 316.32870064 16.11413214 315.15277117 16.10953921 C313.2635079 16.10981575 313.2635079 16.10981575 311.33607769 16.11009789 C309.98895388 16.10679902 308.64183106 16.10307341 307.2947095 16.09895641 C303.5847551 16.08893104 299.87481687 16.08521876 296.16485083 16.0825671 C292.16678944 16.07866571 288.16874088 16.06908735 284.17068768 16.06035423 C274.51220782 16.04058656 264.85372691 16.03052385 255.19523188 16.02162644 C250.6488653 16.0172446 246.10249988 16.01187757 241.55613422 16.00663757 C226.44696291 15.98962604 211.33779232 15.97513081 196.2286129 15.96788883 C192.30722522 15.96597889 188.38583754 15.96405856 184.46444988 15.96210289 C183.48978922 15.96161915 182.51512856 15.96113541 181.51093272 15.96063701 C165.71418322 15.95233272 149.91750935 15.92698875 134.12079289 15.89452221 C117.90950951 15.86147468 101.6982646 15.84344222 85.48694736 15.84024459 C76.38205133 15.8380775 67.27726563 15.82929969 58.17240238 15.80378342 C50.4200975 15.78210801 42.66792974 15.77401043 34.915598 15.7837502 C30.95938105 15.78830393 27.00344723 15.78634671 23.04726887 15.76698875 C19.4256349 15.74942054 15.80449192 15.75030258 12.1828532 15.76588605 C10.2518005 15.76940222 8.32074303 15.75318861 6.38976115 15.73628157 C-1.87368773 15.79798522 -5.24432941 16.85158588 -11.27724934 22.42719078 C-13.64256581 26.47902299 -13.44085284 29.9289304 -13.3629427 34.53851891 C-13.37254634 36.36794685 -13.38231706 38.19737392 -13.39223957 40.02680016 C-13.38363384 42.8971789 -13.36677131 45.76733449 -13.34463215 48.63764 C-13.33010635 51.41754437 -13.34536516 54.19616026 -13.3629427 56.97601891 C-13.34646183 57.83135216 -13.32998096 58.68668541 -13.31300068 59.56793785 C-13.3496196 63.94292601 -13.50083209 65.70795459 -16.27724934 69.26703453 C-19.38231823 71.59719394 -21.03549783 72.4195127 -24.92934895 72.25726891 C-27.63697696 70.27279 -29.59726539 68.66581485 -30.39202595 65.29480553 C-30.57495925 62.91153493 -30.59613599 60.57699982 -30.5582552 58.18695641 C-30.56066715 57.31008171 -30.56307911 56.43320702 -30.56556416 55.52976036 C-30.56458642 53.67553752 -30.55121017 51.82128524 -30.52627277 49.96722984 C-30.49220788 47.16182895 -30.50555585 44.35962537 -30.52505207 41.55414391 C-30.51581322 29.09113754 -29.83744217 18.41143448 -20.78872395 8.97601891 C-14.54517351 3.20466977 -8.73588335 0.01221647 0 0 Z " fill="#040300" transform="translate(94.92934894561768,-0.25726890563964844)"/>
<path d="M0 0 C2.54232342 -0.08152344 5.08199202 -0.14073716 7.625 -0.1875 C8.33785156 -0.21263672 9.05070312 -0.23777344 9.78515625 -0.26367188 C15.31475288 -0.33976724 19.45195192 0.6214183 23.64453125 4.53515625 C27.36541931 9.40093295 28.12506887 11.48924685 28.12749195 17.60680962 C28.12913578 18.29677538 28.13077962 18.98674115 28.13247326 19.69761497 C28.13681927 22.03271334 28.13400357 24.36775023 28.13130188 26.70285034 C28.13300276 28.38464473 28.13515187 30.06643871 28.13771313 31.74823201 C28.14232226 35.4167414 28.14372864 39.0852339 28.14274788 42.75374603 C28.14115938 48.7215288 28.14634794 54.68929472 28.15237427 60.65707397 C28.16049735 69.32109446 28.16543454 77.985112 28.16866493 86.64913559 C28.17415316 100.33601883 28.19104174 114.02287703 28.21000671 127.70974731 C28.21636382 132.38860126 28.22267219 137.06745527 28.22898388 141.74630928 C28.23056764 142.91568065 28.2321514 144.08505203 28.23378316 145.2898589 C28.25172965 158.60909033 28.26795161 171.92832354 28.28295898 185.24755859 C28.28502279 187.07454447 28.28502279 187.07454447 28.28712829 188.93843915 C28.30906694 208.68438032 28.31981629 228.43031509 28.32732973 248.1762663 C28.33539217 268.43072006 28.35865417 288.68511869 28.3952834 308.93954098 C28.41734668 321.44305258 28.42696138 333.9464509 28.42078307 346.44998099 C28.41761584 355.0141282 28.42888977 363.57817848 28.45167748 372.1422957 C28.46438362 377.08857509 28.47046907 382.03463862 28.45926094 386.98092651 C28.44914117 391.50487994 28.45724 396.02841309 28.4801239 400.55231656 C28.48514508 402.19295664 28.48333954 403.83363401 28.47419123 405.47425626 C28.46276603 407.69718602 28.47572236 409.91866388 28.49498463 412.1415081 C28.49644984 413.9967143 28.49644984 413.9967143 28.49794465 415.88939941 C29.09724282 419.60249047 30.03775657 420.75510813 33 423 C33.99 423.33 34.98 423.66 36 424 C36.13481759 426.93902349 36.23399416 429.87189559 36.3125 432.8125 C36.35439453 433.64587891 36.39628906 434.47925781 36.43945312 435.33789062 C36.48603566 437.65770066 36.47812444 439.72818796 36 442 C33.60546875 443.88671875 33.60546875 443.88671875 31 445 C28.81054412 448.28418382 28.75155192 449.30036864 28.7265625 453.11328125 C28.7059375 454.11423828 28.6853125 455.11519531 28.6640625 456.14648438 C28.63816641 458.24536212 28.61985042 460.34434802 28.609375 462.44335938 C28.46705633 468.60654863 28.12207507 472.30857754 24 477 C18.71713365 481.76746475 14.71618374 482.14088244 7.8125 482.0625 C7.06291016 482.05798828 6.31332031 482.05347656 5.54101562 482.04882812 C3.69397617 482.03706354 1.84697787 482.01912865 0 482 C0.35328715 481.43235774 0.70657431 480.86471548 1.07056713 480.27987194 C6.1531534 470.9067628 5.71103367 461.84843227 5.65942383 451.48364258 C5.66788742 449.52144354 5.67853627 447.55925289 5.69119263 445.59707642 C5.71923277 440.29819185 5.71688613 434.99971356 5.70889878 429.70077729 C5.70576497 424.15272752 5.7308337 418.60480516 5.75285339 413.05680847 C5.79024547 402.56340052 5.80243853 392.07012215 5.8054778 381.57665414 C5.81017386 369.62493177 5.84311482 357.67333879 5.87837565 345.72167361 C5.95024557 321.14779806 5.98681662 296.57397218 6 272 C6.969375 271.7525 7.93875 271.505 8.9375 271.25 C9.948125 270.8375 10.95875 270.425 12 270 C13.04116142 267.24467497 13.12520025 264.61612025 13.12584114 261.69272614 C13.12844889 260.83379682 13.13105664 259.97486751 13.13374341 259.08991003 C13.13151268 258.15100754 13.12928196 257.21210505 13.12698364 256.24475098 C13.12854363 255.24368521 13.13010362 254.24261945 13.13171089 253.21121836 C13.13570867 249.8471776 13.13253593 246.48318174 13.12939453 243.11914062 C13.13074911 240.71127801 13.13252937 238.3034156 13.13470459 235.89555359 C13.13879748 230.02861683 13.13818954 224.16169178 13.13529195 218.29475534 C13.13303463 213.52705364 13.13272683 208.75935552 13.13381577 203.99165344 C13.133969 203.31338679 13.13412223 202.63512014 13.13428011 201.93629995 C13.13459983 200.55846401 13.13492404 199.18062807 13.1352527 197.80279213 C13.13810503 184.87932699 13.13482433 171.95586894 13.12945233 159.03240496 C13.12498452 147.94070783 13.12576052 136.84902116 13.13037109 125.75732422 C13.13572121 112.88046328 13.13783036 100.00360855 13.13475883 87.12674665 C13.13444028 85.75394662 13.13412591 84.38114659 13.13381577 83.00834656 C13.13366149 82.33288234 13.13350721 81.65741813 13.13334826 80.9614853 C13.13248442 76.19887544 13.13394314 71.43626952 13.13629532 66.67366028 C13.13939086 60.2649715 13.13719057 53.85629787 13.13140106 47.44761086 C13.13007572 45.09172918 13.13046376 42.73584585 13.13266373 40.37996483 C13.13538405 37.1717035 13.13198317 33.96350624 13.12698364 30.75524902 C13.12921436 29.81634654 13.13144509 28.87744405 13.13374341 27.91008997 C13.13113566 27.05116066 13.12852791 26.19223134 13.12584114 25.30727386 C13.12567879 24.56670919 13.12551644 23.82614451 13.12534916 23.06313848 C12.9926626 20.87923274 12.77585091 19.05132805 12 17 C11.071875 16.814375 10.14375 16.62875 9.1875 16.4375 C6 15 6 15 4.78515625 12.57421875 C4.10549779 10.63783333 3.46215477 8.68824052 2.859375 6.7265625 C2.09874974 4.31330598 1.19936232 2.21987236 0 0 Z " fill="#FEC300" transform="translate(403,15)"/>
<path d="M0 0 C0.81491913 -0.00525696 1.62983826 -0.01051392 2.4694519 -0.01593018 C5.16602689 -0.02914542 7.86201265 -0.02038684 10.55859375 -0.01025391 C12.43042108 -0.01227421 14.30224764 -0.01518528 16.17407227 -0.01895142 C20.09822072 -0.02337683 24.0221644 -0.01693673 27.94628906 -0.00292969 C32.98049722 0.01416233 38.01422559 0.0043223 43.04841614 -0.01364708 C46.91397731 -0.02447905 50.77942443 -0.02104128 54.64498901 -0.0132637 C56.50137387 -0.01126007 58.35776902 -0.01372668 60.21414185 -0.02070236 C62.80710344 -0.02830722 65.39928418 -0.01672655 67.9921875 0 C68.76215057 -0.00607269 69.53211365 -0.01214539 70.32540894 -0.0184021 C73.14044427 0.01530081 75.44402364 0.10151835 77.97009277 1.41319275 C79.62520336 4.59918217 79.42939149 7.86912289 79.41601562 11.3762207 C79.42448517 12.18953354 79.43295471 13.00284637 79.44168091 13.84080505 C79.46510299 16.53253769 79.46607185 19.22370046 79.46484375 21.91552734 C79.47194223 23.78496023 79.47964077 25.65439092 79.48791504 27.52381897 C79.50137184 31.44375666 79.50292327 35.36349292 79.49707031 39.28344727 C79.49117332 44.30880727 79.52175995 49.33320146 79.56218719 54.3583746 C79.58802707 58.21970331 79.59094499 62.08079835 79.58729553 65.94220161 C79.5889903 67.79499298 79.59866699 69.64779474 79.61643982 71.50050163 C79.63855679 74.09124391 79.628966 76.68001687 79.61132812 79.27075195 C79.62459137 80.03711975 79.63785461 80.80348755 79.65151978 81.59307861 C79.59444304 85.19806652 79.27144875 87.05557371 76.94714355 89.86317444 C73.28541606 91.75543933 70.19183465 91.95091725 66.1640625 91.90576172 C65.39107819 91.912771 64.61809387 91.91978027 63.82168579 91.92700195 C61.27528596 91.94455789 58.7300042 91.93296839 56.18359375 91.91943359 C54.40909614 91.92212921 52.63459998 91.92601222 50.86010742 91.93103027 C47.14455069 91.93692204 43.42937909 91.92837286 39.71386719 91.90966797 C34.95553429 91.88687843 30.19810388 91.90000326 25.43980408 91.92395782 C21.77658307 91.93842458 18.11357539 91.93380582 14.4503479 91.92344666 C12.69609469 91.92078179 10.941822 91.9240407 9.18759155 91.93336487 C6.73391556 91.94354518 4.28169297 91.92801021 1.828125 91.90576172 C1.10589752 91.91385864 0.38367004 91.92195557 -0.36044312 91.93029785 C-3.71227429 91.87410369 -5.96602367 91.40776011 -8.95495605 89.86317444 C-11.77279634 86.45941727 -11.69232308 83.49933061 -11.61914062 79.27075195 C-11.62468964 78.4556868 -11.63023865 77.64062164 -11.63595581 76.80085754 C-11.64775763 74.10931431 -11.62347482 71.41945254 -11.59765625 68.72802734 C-11.59594538 66.85763119 -11.59601059 64.98723264 -11.59777832 63.11683655 C-11.59612484 59.19850705 -11.57742015 55.28074952 -11.54589844 51.36254883 C-11.50619323 46.33617514 -11.50185611 41.31054981 -11.50936127 36.28404903 C-11.51242817 32.42274602 -11.50032091 28.56161176 -11.48323059 24.70034981 C-11.47619229 22.84676738 -11.47307706 20.99316583 -11.47392273 19.13957024 C-11.47212829 16.5514341 -11.45077841 13.96420102 -11.42382812 11.3762207 C-11.42675873 10.60782867 -11.42968933 9.83943665 -11.43270874 9.04776001 C-11.38747489 6.23750169 -11.28753268 3.9341476 -9.97790527 1.41319275 C-6.78690752 -0.24374926 -3.51097359 -0.02769102 0 0 Z " fill="#020202" transform="translate(168.00390625,112.61181640625)"/>
<path d="M0 0 C0.78761719 -0.0103125 1.57523437 -0.020625 2.38671875 -0.03125 C14.10753739 0.14485579 24.69938142 5.20361348 33.19921875 13.1015625 C41.73411489 22.26470054 45.93240386 32.51377043 45.75 44.9375 C45.76160156 45.72769531 45.77320313 46.51789063 45.78515625 47.33203125 C45.726542 59.26980058 40.29808952 69.88828056 32.328125 78.5859375 C21.42382403 88.92321482 9.57761217 90.94987808 -4.8828125 90.70703125 C-16.35985685 90.24930237 -25.84389759 84.49129592 -33.6953125 76.26953125 C-43.89196995 63.79959303 -46.07611214 51.13619079 -44.625 35.4375 C-41.8154867 22.71591873 -34.1026122 13.31258926 -23.44921875 6.1328125 C-15.69380236 1.47741732 -8.95616778 0.09719872 0 0 Z " fill="#040302" transform="translate(309.625,112.5625)"/>
<path d="M0 0 C16.16123082 10.91791015 26.28108562 26.28430567 31 45 C31.26151855 45.92341187 31.26151855 45.92341187 31.52832031 46.86547852 C35.63807238 65.46359566 30.48532346 85.01655106 21 101 C9.56466402 117.92715014 -6.66261189 128.10079234 -26.35888672 132.53051758 C-46.73347913 136.15229066 -65.93753016 131.36872156 -82.92578125 120.05078125 C-98.84735023 107.84341966 -108.48026766 91.65912611 -112 72 C-113.61126387 49.78011566 -109.89971189 30.77131347 -95.14453125 13.3359375 C-84.10236438 1.30822204 -71.77477688 -6.02259899 -56 -10 C-55.38439209 -10.1743457 -54.76878418 -10.34869141 -54.13452148 -10.52832031 C-35.53640434 -14.63807238 -15.98344894 -9.48532346 0 0 Z M-83.5 22.5625 C-95.71798635 37.352694 -98.39923703 52.27471042 -97 71 C-94.93994173 85.26524322 -86.31825456 98.63133635 -75 107.296875 C-60.28021943 117.37992469 -45.58700415 120.2509351 -27.89013672 117.6953125 C-12.855381 114.55288422 0.03647674 105.32787968 8.43359375 92.64453125 C16.91826648 78.3200339 20.17997071 61.211099 16.125 44.8046875 C13.62689336 37.3268025 9.93029172 31.11484233 5 25 C4.46632813 24.29230469 3.93265625 23.58460938 3.3828125 22.85546875 C-4.63541728 12.82309035 -17.45507797 6.2822319 -30 4 C-51.04178689 1.97225028 -68.82763313 6.65369771 -83.5 22.5625 Z " fill="#010201" transform="translate(220,316)"/>
<path d="M0 0 C11.50240977 8.29464203 19.9002791 21.18161804 23 35 C24.62699509 52.95531358 22.15651752 68.68606264 11.1875 83.4375 C1.88945598 94.53516544 -11.88819495 102.84040991 -26.47607422 104.23706055 C-46.13897032 105.24086657 -60.42321445 101.00202729 -75.30859375 87.98046875 C-87.27548046 75.78030939 -91.47479836 59.99116162 -91.42944336 43.43383789 C-91.11306936 28.50470719 -84.94772785 16.33904213 -74.69921875 5.5859375 C-53.60378532 -13.86995447 -23.90367043 -15.67993061 0 0 Z M-53 9 C-55.87395366 13.22111943 -56.32774031 17.00607089 -57 22 C-59.29283756 24.29283756 -60.08577376 24.32668746 -63.1875 24.8125 C-67.90648059 25.79277133 -71.66877318 27.44439003 -75 31 C-78.39513749 36.21225333 -78.51789759 40.85246178 -78.5 46.875 C-78.52835938 47.73480469 -78.55671875 48.59460938 -78.5859375 49.48046875 C-78.60511013 55.79784978 -77.15568511 60.17527701 -73 65 C-68.74894236 68.50090849 -64.38163883 69.36686602 -59 70 C-56.70934041 72.29065959 -56.64205185 73.14768889 -56.125 76.25 C-54.90334808 82.0598408 -52.91694823 85.64773419 -47.9765625 89.1328125 C-43.44183949 91.62263767 -39.14121926 91.62726986 -34.0625 91.5625 C-33.20720703 91.58634766 -32.35191406 91.61019531 -31.47070312 91.63476562 C-25.18892992 91.62039086 -20.79954369 90.12198635 -16 86 C-12.49852433 81.74966487 -11.63308347 77.38120951 -11 72 C-8.70934041 69.70934041 -7.85231111 69.64205185 -4.75 69.125 C1.0598408 67.90334808 4.64773419 65.91694823 8.1328125 60.9765625 C10.62263767 56.44183949 10.62726986 52.14121926 10.5625 47.0625 C10.58634766 46.20720703 10.61019531 45.35191406 10.63476562 44.47070312 C10.62051554 38.24341561 9.19510073 33.7028285 5 29 C0.38946403 25.84853762 -4.65358038 24.41843786 -10 23 C-11.50075373 21.49924627 -11.44133344 19.88340128 -11.8125 17.8125 C-13.08683616 11.99487841 -15.06333214 8.36191482 -20.02734375 4.87109375 C-24.53184636 2.39967443 -28.82210789 2.31150122 -33.875 2.375 C-34.76179443 2.38192871 -35.64858887 2.38885742 -36.56225586 2.39599609 C-43.3241674 2.62195492 -48.37254692 3.72011229 -53 9 Z " fill="#0373AB" transform="translate(214,330)"/>
<path d="M0 0 C0.99 0.495 0.99 0.495 2 1 C8.6 1.33 15.2 1.66 22 2 C22 76.91 22 151.82 22 229 C14.74 229 7.48 229 0 229 C0 153.43 0 77.86 0 0 Z " fill="#B2E4FB" transform="translate(379,43)"/>
<path d="M0 0 C1.19794189 -0.00315216 2.39588379 -0.00630432 3.63012695 -0.009552 C4.93425537 -0.00752777 6.23838379 -0.00550354 7.58203125 -0.00341797 C8.9234214 -0.00409107 10.26481144 -0.00506115 11.60620117 -0.00631714 C14.42074746 -0.00779382 17.23526207 -0.00564051 20.04980469 -0.00097656 C23.66493756 0.00472073 27.2799962 0.00144156 30.89512634 -0.00454903 C33.66598067 -0.00815544 36.43681727 -0.00701569 39.20767212 -0.00442123 C41.19142708 -0.0034258 43.17518272 -0.00647288 45.15893555 -0.009552 C46.35687744 -0.00639984 47.55481934 -0.00324768 48.7890625 0 C49.84971924 0.00079559 50.91037598 0.00159119 52.00317383 0.00241089 C54.39453125 0.12939453 54.39453125 0.12939453 55.39453125 1.12939453 C55.48844421 3.03183215 55.51196783 4.93777912 55.50805664 6.8425293 C55.50793579 8.08087524 55.50781494 9.31922119 55.50769043 10.59509277 C55.50257446 11.90707642 55.4974585 13.21906006 55.4921875 14.57080078 C55.49118042 15.76894409 55.49017334 16.9670874 55.48913574 18.20153809 C55.4838843 22.69833324 55.4699232 27.1951148 55.45703125 31.69189453 C55.43640625 41.73626953 55.41578125 51.78064453 55.39453125 62.12939453 C34.93453125 62.12939453 14.47453125 62.12939453 -6.60546875 62.12939453 C-6.62609375 52.08501953 -6.64671875 42.04064453 -6.66796875 31.69189453 C-6.68162476 26.92860718 -6.68162476 26.92860718 -6.69555664 22.0690918 C-6.69847552 19.56966189 -6.70102414 17.07023151 -6.703125 14.57080078 C-6.70824097 13.25881714 -6.71335693 11.9468335 -6.71862793 10.59509277 C-6.71874878 9.35674683 -6.71886963 8.11840088 -6.71899414 6.8425293 C-6.72121475 5.76109146 -6.72343536 4.67965363 -6.72572327 3.56544495 C-6.49967003 -1.01381824 -4.01173914 0.00300919 0 0 Z " fill="#81D4FA" transform="translate(177.60546875,126.87060546875)"/>
<path d="M0 0 C6.51709987 4.83309473 10.33912515 12.14961216 12.13671875 19.87109375 C13.28489177 30.50273432 12.56150579 38.96912078 6.13671875 47.87109375 C0.77036321 54.08584455 -5.1102272 57.39403497 -12.86328125 59.87109375 C-13.85328125 60.20109375 -14.84328125 60.53109375 -15.86328125 60.87109375 C-25.51650223 62.03014258 -33.37039088 59.51897953 -41.41015625 54.1796875 C-47.83411729 49.01680606 -52.91054236 42.24015324 -54.15625 33.91259766 C-55.08711555 23.03957085 -53.61761902 13.38440655 -46.6640625 4.72265625 C-43.46737194 1.4358204 -39.82750807 -0.86866325 -35.86328125 -3.12890625 C-34.83203125 -3.74765625 -33.80078125 -4.36640625 -32.73828125 -5.00390625 C-21.67867629 -9.26352208 -9.66413603 -5.8552103 0 0 Z " fill="#030302" transform="translate(340.86328125,387.12890625)"/>
<path d="M0 0 C9.07756336 4.96976391 15.70642856 12.45994165 18.6328125 22.44140625 C20.43205598 33.14299354 18.94754809 42.43628663 12.6328125 51.44140625 C7.00745914 58.65339774 -0.4386558 62.65569991 -9.3671875 64.44140625 C-18.8463511 65.32881731 -26.23956523 64.12758859 -34.03515625 58.5234375 C-41.35381544 52.41554616 -46.78609145 44.78932894 -47.67578125 35.0703125 C-48.1680661 23.73654077 -45.94959234 15.173504 -38.1171875 6.50390625 C-27.61162506 -3.08710946 -13.07871138 -5.47170578 0 0 Z " fill="#030200" transform="translate(386.3671875,320.55859375)"/>
<path d="M0 0 C7.98893629 8.35206976 10.12508492 15.97416371 10.03125 27.2578125 C9.42321097 35.07787004 6.32230789 41.42933547 0.75 46.875 C-8.28617539 53.59132912 -17.08285459 55.019459 -28.25 53.875 C-31.9563377 52.67307395 -35.01820743 51.03162423 -38.25 48.875 C-39.1575 48.318125 -40.065 47.76125 -41 47.1875 C-48.78452917 39.1867339 -50.62117935 31.30619223 -50.53125 20.4921875 C-49.92827068 12.73720346 -46.88567699 6.26564756 -41.25 0.875 C-27.97498288 -8.29879232 -13.75118011 -8.99115623 0 0 Z " fill="#F85320" transform="translate(330.25,134.125)"/>
<path d="M0 0 C1.31503006 -0.00852997 2.63006012 -0.01705994 3.98493958 -0.02584839 C5.44583142 -0.02514933 6.90672317 -0.02422625 8.36761475 -0.02310181 C9.90348132 -0.02908509 11.43934488 -0.03589018 12.97520447 -0.04345703 C17.15099952 -0.06114794 21.32671264 -0.0658138 25.50254154 -0.0670886 C28.98895661 -0.06898693 32.47535257 -0.07634399 35.96176028 -0.08343279 C44.18966561 -0.09972726 52.41752717 -0.10460091 60.64544678 -0.10317993 C69.12911253 -0.10197924 77.61252357 -0.12306398 86.09612489 -0.15466726 C93.38117234 -0.18083728 100.66613667 -0.19154687 107.95123076 -0.19026911 C112.3015244 -0.18975955 116.65159191 -0.19543911 121.00183868 -0.21662521 C125.09607201 -0.23601908 129.18986384 -0.23612443 133.28411293 -0.22159195 C134.78408517 -0.21950393 136.28408511 -0.22420445 137.78400993 -0.23631287 C152.00252699 -0.34362807 152.00252699 -0.34362807 157.72601318 4.26742554 C159.72601318 7.26742554 159.72601318 7.26742554 159.72601318 15.26742554 C102.30601318 15.26742554 44.88601318 15.26742554 -14.27398682 15.26742554 C-14.27398682 7.26742554 -14.27398682 7.26742554 -11.96148682 4.39242554 C-7.59855993 0.94266939 -5.52994613 0.01617455 0 0 Z " fill="#FD5621" transform="translate(183.27398681640625,481.7325744628906)"/>
<path d="M0 0 C13.32071753 -1.04476216 26.50594044 5.24666386 36.625 13.5625 C46.66528499 22.95269459 54.71098187 36.0989364 55.3359375 50.0390625 C55.63552677 68.50660116 52.28990859 84.01878783 39.19140625 97.9375 C29.70994682 106.86122652 16.77554819 114.05525106 3.5 114.125 C2.345 114.08375 1.19 114.0425 0 114 C0.680625 113.46375 1.36125 112.9275 2.0625 112.375 C4.93556223 110.05209862 7.69794378 107.63643174 10.44921875 105.171875 C12 104 12 104 14 104 C14 103.34 14 102.68 14 102 C14.66 102 15.32 102 16 102 C16.27070313 101.42765625 16.54140625 100.8553125 16.8203125 100.265625 C18.02404373 97.95382331 19.38927015 95.89006684 20.875 93.75 C24.23887234 88.7658762 27.08974473 83.73076581 29 78 C30.91217926 76.96733568 32.86615596 76.22946376 34.89453125 75.453125 C38.06634534 73.26404366 39.68895313 70.54381438 41 67 C41.54404469 63.64652119 41.56073477 60.39102492 41.5 57 C41.51546875 56.13632812 41.5309375 55.27265625 41.546875 54.3828125 C41.51079202 48.44716265 40.5612959 44.79646366 37 40 C35.07445472 38.7258223 35.07445472 38.7258223 33 38.1875 C30.37143329 37.04716591 29.2545728 36.47025253 27.875 33.921875 C27.27298157 32.21257266 26.68384413 30.49869654 26.10546875 28.78125 C21.3944615 16.92882186 10.78994055 7.27778359 0 1 C0 0.67 0 0.34 0 0 Z " fill="#036CA0" transform="translate(182,320)"/>
<path d="M0 0 C1.08152344 -0.01417969 2.16304687 -0.02835937 3.27734375 -0.04296875 C6.0625 0.1875 6.0625 0.1875 8.0625 2.1875 C8.58984375 4.17578125 8.58984375 4.17578125 9 6.5 C10.18876156 12.11960008 11.45324097 15.07339759 16.3125 18.4375 C19.80814048 20.2929355 23.13875248 20.72588264 27.0625 21.1875 C29.0625 23.1875 29.0625 23.1875 29.328125 25.9375 C29.32296875 27.01 29.3178125 28.0825 29.3125 29.1875 C29.32023437 30.79625 29.32023437 30.79625 29.328125 32.4375 C29.0625 35.1875 29.0625 35.1875 27.0625 37.1875 C25.109375 37.6796875 25.109375 37.6796875 22.8125 38.0625 C18.47155845 38.96977074 15.48732653 40.2519344 12.0625 43.1875 C9.90478929 46.53567179 9.09892797 48.91884372 8.5625 52.875 C8.02910798 56.40872212 7.83370196 57.13948452 5.0625 59.1875 C2.6875 59.5859375 2.6875 59.5859375 0.0625 59.5625 C-1.236875 59.57410156 -1.236875 59.57410156 -2.5625 59.5859375 C-5.41743248 59.10698501 -6.26690364 58.5263349 -7.9375 56.1875 C-8.5625 54.1015625 -8.5625 54.1015625 -8.9375 51.8125 C-10.07462265 46.1996626 -11.34186682 43.29216912 -16.1875 39.9375 C-19.68314048 38.0820645 -23.01375248 37.64911736 -26.9375 37.1875 C-28.9375 35.1875 -28.9375 35.1875 -29.203125 32.4375 C-29.19796875 31.365 -29.1928125 30.2925 -29.1875 29.1875 C-29.19265625 28.115 -29.1978125 27.0425 -29.203125 25.9375 C-28.9375 23.1875 -28.9375 23.1875 -26.9375 21.1875 C-24.94921875 20.66015625 -24.94921875 20.66015625 -22.625 20.25 C-18.82718715 19.44053027 -15.94961999 18.76931713 -12.9375 16.1875 C-9.91199323 11.51171682 -8.35379519 6.5258434 -6.9375 1.1875 C-5.13003866 -0.61996134 -2.43304219 0.01446517 0 0 Z " fill="#FAF2E1" transform="translate(179.9375,347.8125)"/>
<path d="M0 0 C1.19794189 -0.00315216 2.39588379 -0.00630432 3.63012695 -0.009552 C4.93425537 -0.00752777 6.23838379 -0.00550354 7.58203125 -0.00341797 C8.9234214 -0.00409107 10.26481144 -0.00506115 11.60620117 -0.00631714 C14.42074746 -0.00779382 17.23526207 -0.00564051 20.04980469 -0.00097656 C23.66493756 0.00472073 27.2799962 0.00144156 30.89512634 -0.00454903 C33.66598067 -0.00815544 36.43681727 -0.00701569 39.20767212 -0.00442123 C41.19142708 -0.0034258 43.17518272 -0.00647288 45.15893555 -0.009552 C46.35687744 -0.00639984 47.55481934 -0.00324768 48.7890625 0 C49.84971924 0.00079559 50.91037598 0.00159119 52.00317383 0.00241089 C54.39453125 0.12939453 54.39453125 0.12939453 55.39453125 1.12939453 C55.48844421 3.03183215 55.51196783 4.93777912 55.50805664 6.8425293 C55.50793579 8.08087524 55.50781494 9.31922119 55.50769043 10.59509277 C55.50257446 11.90707642 55.4974585 13.21906006 55.4921875 14.57080078 C55.49118042 15.76894409 55.49017334 16.9670874 55.48913574 18.20153809 C55.4838843 22.69833324 55.4699232 27.1951148 55.45703125 31.69189453 C55.43640625 41.73626953 55.41578125 51.78064453 55.39453125 62.12939453 C34.93453125 62.12939453 14.47453125 62.12939453 -6.60546875 62.12939453 C-6.62609375 52.08501953 -6.64671875 42.04064453 -6.66796875 31.69189453 C-6.68162476 26.92860718 -6.68162476 26.92860718 -6.69555664 22.0690918 C-6.69847552 19.56966189 -6.70102414 17.07023151 -6.703125 14.57080078 C-6.70824097 13.25881714 -6.71335693 11.9468335 -6.71862793 10.59509277 C-6.71874878 9.35674683 -6.71886963 8.11840088 -6.71899414 6.8425293 C-6.72121475 5.76109146 -6.72343536 4.67965363 -6.72572327 3.56544495 C-6.49967003 -1.01381824 -4.01173914 0.00300919 0 0 Z M-5.60546875 1.12939453 C-5.60546875 20.92939453 -5.60546875 40.72939453 -5.60546875 61.12939453 C6.93453125 61.12939453 19.47453125 61.12939453 32.39453125 61.12939453 C32.39453125 41.32939453 32.39453125 21.52939453 32.39453125 1.12939453 C19.85453125 1.12939453 7.31453125 1.12939453 -5.60546875 1.12939453 Z " fill="#4BB4E3" transform="translate(177.60546875,126.87060546875)"/>
<path d="M0 0 C4.42769195 2.47455838 7.46802749 5.81105499 9.75 10.375 C10.25178565 16.82101568 10.71229274 22.95986659 6.75 28.375 C2.4153878 32.7096122 -1.78519102 35.64426473 -8 35.8125 C-13.52668588 35.69837964 -17.07665002 33.91222735 -21.25 30.375 C-26.27532452 24.96311205 -26.60499979 20.48192548 -26.52734375 13.3203125 C-26.01492664 7.87858711 -23.094734 5.01177889 -19.1875 1.5625 C-13.40954524 -2.74023227 -6.51391423 -2.97884882 0 0 Z " fill="#F3511E" transform="translate(380.25,334.625)"/>
<path d="M0 0 C5.2354914 2.47495957 9.39229231 6.78458462 12 12 C12.74000974 18.87151904 12.73639085 24.66448291 8.56640625 30.37890625 C4.56934297 34.51551788 -0.48071919 36.75301169 -6.1875 37.3125 C-12.08941527 36.82873645 -16.29543116 34.79428299 -20.375 30.5 C-24.37693597 24.34317543 -24.78576397 19.31742699 -24 12 C-19.06467902 1.55989792 -10.84764257 -1.00941366 0 0 Z " fill="#4EC0F3" transform="translate(326,396)"/>
<path d="M0 0 C2.40973049 0.95592615 3.72929301 1.53131327 5.046875 3.8125 C7.69226763 12.0426104 8.4296191 18.70994335 4.5 26.625 C3.68621615 28.09433196 2.85964692 29.55702123 2 31 C-1.86105698 29.17672309 -4.27529371 27.05224268 -6.26953125 23.2265625 C-7.80024782 18.56074193 -7.67633003 13.8213626 -7 9 C-5.1573889 5.37831612 -3.00935265 2.70841738 0 0 Z " fill="#7FD1F7" transform="translate(309,399)"/>
</svg>
